<svg version="1.1"
     baseProfile="full"
     width="512" height="512"
     xmlns="http://www.w3.org/2000/svg"
     xmlns:xlink="http://www.w3.org/1999/xlink">
    <g fill="none"
       stroke="#eeeeee"
       stroke-width="5">
        <!-- Outer ring -->
        <circle cx="256" cy="256" r="250" />

        <!-- Inner ring -->
        <circle cx="256" cy="256" r="210" />
    </g>

    <g
      fill="none"
      stroke="#eeeeee"
      stroke-width="5"
    >
    <rect
      x="176"
      y="144"
      width="160"
      height="224"
      rx="16"
      ry="16"
      />
    <line x1="192" x2="320" y1="160" y2="160" />
    <line x1="192" x2="320" y1="176" y2="176" />
    <line x1="192" x2="320" y1="192" y2="192" />
    <line x1="192" x2="320" y1="208" y2="208" />
    <line x1="192" x2="320" y1="224" y2="224" />
    <line x1="192" x2="320" y1="240" y2="240" />
    <line x1="192" x2="320" y1="256" y2="256" />
    <line x1="192" x2="320" y1="272" y2="272" />
    <line x1="192" x2="320" y1="288" y2="288" />
    <line x1="192" x2="320" y1="304" y2="304" />
    <line x1="192" x2="320" y1="320" y2="320" />
    <line x1="192" x2="320" y1="336" y2="336" />
    <line x1="192" x2="320" y1="350" y2="350" />
    </g>

</svg>
